<?xml version="1.0" standalone="no"?>
<!DOCTYPE svg PUBLIC "-//W3C//DTD SVG 20010904//EN"
 "http://www.w3.org/TR/2001/REC-SVG-20010904/DTD/svg10.dtd">
<svg version="1.0" xmlns="http://www.w3.org/2000/svg"
 width="225.000000pt" height="225.000000pt" viewBox="0 0 225.000000 225.000000"
 preserveAspectRatio="xMidYMid meet">
<metadata>
Created by potrace 1.15, written by Peter Selinger 2001-2017
</metadata>
<g transform="translate(0.000000,225.000000) scale(0.100000,-0.100000)"
fill="#000000" stroke="none">
<path d="M1086 2208 c-3 -13 -6 -78 -6 -145 0 -68 -4 -124 -10 -128 -11 -7
-14 6 -29 127 -13 99 -37 166 -53 150 -10 -10 -6 -78 18 -292 7 -66 -9 -34
-44 92 -64 223 -102 248 -63 41 22 -112 22 -155 1 -97 -42 114 -74 184 -84
181 -13 -4 -11 -18 15 -150 29 -140 19 -149 -25 -22 -40 113 -51 135 -69 135
-11 0 -7 -38 17 -157 7 -40 10 -70 5 -68 -4 3 -22 30 -38 59 -60 105 -85 102
-41 -5 16 -41 30 -76 30 -78 0 -3 -23 20 -51 50 -47 51 -50 52 -44 24 3 -16
16 -38 28 -48 12 -10 15 -16 7 -12 -8 4 -2 -3 13 -15 20 -16 26 -28 21 -42 -4
-15 -3 -18 6 -13 9 6 11 4 5 -5 -6 -10 -21 1 -57 39 -27 29 -52 51 -55 47 -7
-7 17 -67 26 -62 3 2 7 -7 7 -21 l2 -25 -29 28 c-32 31 -36 21 -14 -33 20 -47
19 -48 -11 -28 -26 17 -27 17 -22 -2 5 -19 -6 -35 -33 -45 -9 -4 -19 -17 -21
-30 -3 -13 -9 -32 -13 -43 -5 -14 -4 -16 3 -7 7 10 12 5 23 -20 16 -38 18 -58
6 -75 -5 -7 -1 -15 10 -22 10 -6 13 -11 6 -11 -6 0 -9 -9 -6 -22 4 -21 3 -21
-7 -5 -7 11 -13 24 -15 30 -9 44 -35 64 -35 27 0 -11 4 -20 9 -20 4 0 6 -12 3
-26 -3 -19 -1 -25 7 -20 9 6 10 0 5 -20 -5 -19 -4 -25 4 -20 8 5 10 1 6 -9 -5
-12 -14 -14 -35 -10 -23 5 -29 3 -29 -10 0 -10 5 -13 12 -9 8 5 9 2 5 -10 -4
-10 -3 -15 3 -11 5 3 14 -3 19 -14 16 -29 13 -39 -4 -17 -17 22 -17 22 -19
-14 -1 -14 -5 -31 -10 -38 -5 -8 -3 -19 3 -25 9 -9 11 -8 6 6 -4 10 -2 17 5
17 7 0 9 9 5 23 -5 18 -3 17 10 -6 9 -15 13 -33 9 -39 -5 -7 -3 -8 6 -3 9 6
10 2 5 -15 -5 -15 -4 -20 4 -16 6 4 19 -11 31 -33 13 -27 16 -39 7 -35 -7 2
-18 17 -25 32 l-11 27 6 -28 c3 -15 0 -34 -7 -42 -19 -22 -2 -39 20 -20 10 9
24 14 30 10 7 -4 16 -2 20 6 12 18 35 -34 26 -58 -6 -15 -8 -15 -16 -3 -8 12
-10 9 -11 -10 l-1 -25 -8 25 c-5 14 -8 18 -9 9 -1 -9 -10 -19 -21 -22 -11 -3
-20 -11 -20 -19 0 -10 3 -9 10 2 6 9 10 10 10 3 0 -6 6 -18 14 -25 24 -25 46
-76 46 -110 0 -18 5 -51 10 -73 9 -41 5 -62 -6 -29 -3 10 -10 31 -16 46 l-10
28 -19 -24 c-24 -30 -25 -45 -1 -19 9 10 14 14 10 9 -5 -6 -8 -18 -8 -28 0
-10 -6 -18 -13 -18 -18 0 -54 -63 -39 -68 20 -6 13 -29 -15 -51 -19 -14 -24
-23 -16 -28 6 -5 14 -29 18 -54 6 -37 4 -46 -9 -46 -8 0 -13 4 -11 8 9 14 -23
17 -42 4 -17 -13 -17 -14 4 -37 15 -16 19 -28 13 -38 -5 -8 -7 -18 -4 -22 8
-12 1424 -10 1424 2 0 6 -7 13 -16 17 -13 5 -13 7 -2 14 10 7 9 13 -8 27 -12
9 -25 31 -28 47 -4 17 -9 38 -13 49 -3 11 -1 16 5 12 15 -9 30 16 29 46 -1 18
-10 31 -26 38 -18 8 -22 16 -18 35 5 28 -4 32 -22 11 -10 -12 -16 -10 -38 10
-26 24 -43 31 -43 16 0 -4 5 -13 11 -19 6 -6 9 -19 6 -29 -4 -16 -5 -15 -6 4
-1 30 -25 38 -55 19 -22 -15 -24 -15 -19 3 3 11 10 18 16 17 6 -1 20 12 31 30
12 18 27 30 34 28 8 -3 10 3 6 19 -3 14 -1 27 7 31 7 5 10 4 6 -1 -3 -6 -1
-16 4 -24 7 -11 8 -9 6 9 -5 32 -21 37 -52 17 -24 -16 -25 -15 -25 3 0 14 5
19 15 15 8 -4 15 -1 15 5 0 6 6 11 14 11 8 0 18 5 21 10 9 14 -19 40 -42 39
-15 0 -14 -2 5 -9 12 -5 22 -14 22 -19 0 -14 -37 -23 -61 -16 -18 6 -20 14
-18 68 1 34 5 70 9 81 3 10 3 38 0 62 -4 24 -4 44 0 44 17 0 28 -26 23 -59
l-5 -36 21 32 c11 18 32 55 46 83 14 28 30 48 35 45 6 -3 7 1 4 9 -3 9 -2 16
3 16 17 0 42 65 32 83 -7 11 -5 27 6 49 l16 33 -24 -29 c-14 -15 -27 -24 -30
-19 -4 6 3 20 14 31 11 12 17 22 15 22 -3 0 -1 12 4 26 8 19 6 31 -6 47 -11
15 -15 16 -11 5 4 -12 2 -15 -9 -11 -16 6 -19 29 -4 38 6 3 10 16 10 28 l-1
22 -19 -24 c-11 -13 -20 -19 -20 -15 1 5 11 22 25 38 14 18 23 23 22 13 -1 -9
3 -16 8 -16 6 0 9 8 7 17 -1 9 -4 30 -7 46 -6 36 -11 42 -28 28 -11 -10 -14
-5 -15 25 -1 22 -8 41 -17 46 -11 6 -13 16 -9 35 7 26 6 27 -13 10 -35 -31
-42 -19 -16 27 17 32 21 45 11 45 -20 0 -76 -62 -83 -93 -9 -34 -21 -43 -19
-14 0 12 17 47 36 77 43 68 58 106 34 93 -8 -5 -36 -29 -62 -53 l-47 -45 18
35 c10 19 26 46 36 60 21 29 35 80 23 80 -5 0 -24 -22 -42 -48 -71 -103 -73
-104 -46 -23 17 50 24 91 22 125 l-3 51 -25 -45 c-13 -25 -36 -71 -51 -103
-56 -125 -66 -88 -17 65 17 54 28 101 25 105 -13 13 -35 -20 -73 -108 -36 -86
-39 -90 -42 -57 -2 20 6 63 17 96 22 64 28 138 11 127 -5 -3 -17 -32 -26 -63
-37 -136 -67 -228 -76 -237 -7 -7 -8 0 -4 20 12 62 36 236 36 265 0 16 -4 30
-10 30 -11 0 -29 -58 -60 -195 -34 -148 -43 -143 -35 20 4 77 7 142 7 145 1
28 -4 50 -10 50 -15 0 -32 -73 -43 -186 -7 -60 -16 -112 -21 -115 -6 -4 -5
-23 2 -49 12 -44 6 -100 -9 -84 -5 5 -14 97 -20 204 -12 198 -17 240 -31 240
-4 0 -10 -10 -14 -22z m-336 -946 c17 -28 26 -52 20 -52 -5 0 -10 5 -10 10 0
6 -4 10 -10 10 -5 0 -10 -7 -10 -16 0 -10 -6 -14 -14 -11 -10 4 -13 1 -9 -9 3
-9 -2 -14 -15 -14 -11 0 -23 -7 -26 -16 -10 -25 -7 -74 4 -74 6 0 10 -15 10
-32 0 -45 10 -79 21 -72 5 3 9 1 9 -5 0 -17 -22 -24 -31 -10 -5 8 -9 29 -9 47
0 23 -5 32 -16 32 -13 0 -15 -7 -10 -37 3 -21 8 -56 11 -77 2 -22 7 -48 11
-58 9 -30 -32 -22 -55 11 -11 15 -18 31 -14 34 3 4 1 13 -6 20 -13 16 -5 47
13 47 6 0 4 5 -4 10 -12 8 -11 10 8 10 22 0 31 23 12 35 -5 3 -10 14 -10 24 0
10 -9 26 -20 36 -11 10 -26 30 -33 44 -8 14 -23 43 -35 64 -12 21 -22 40 -22
43 0 3 31 -27 69 -66 60 -62 70 -69 75 -52 4 11 5 25 4 31 -2 6 8 17 22 24 14
7 31 26 39 41 12 26 11 33 -4 59 -10 17 -13 28 -6 26 6 -2 25 -28 41 -57z"/>
</g>
</svg>
